<mxfile host="65bd71144e">
    <diagram id="rkdgpKh-mPak9UycuP8K" name="Page-1">
        <mxGraphModel dx="1019" dy="688" grid="1" gridSize="10" guides="1" tooltips="1" connect="1" arrows="1" fold="1" page="1" pageScale="1" pageWidth="850" pageHeight="1100" math="0" shadow="0">
            <root>
                <mxCell id="0"/>
                <mxCell id="1" parent="0"/>
                <mxCell id="4" value="DBC file" style="shape=internalStorage;whiteSpace=wrap;html=1;backgroundOutline=1;" vertex="1" parent="1">
                    <mxGeometry x="80" y="70" width="80" height="80" as="geometry"/>
                </mxCell>
                <mxCell id="6" value="Code sources" style="ellipse;shape=cloud;whiteSpace=wrap;html=1;" vertex="1" parent="1">
                    <mxGeometry x="60" y="210" width="120" height="80" as="geometry"/>
                </mxCell>
                <mxCell id="7" value="App frontend&lt;br&gt;&lt;br&gt;Results presentation" style="rounded=1;whiteSpace=wrap;html=1;" vertex="1" parent="1">
                    <mxGeometry x="230" y="100" width="100" height="120" as="geometry"/>
                </mxCell>
                <mxCell id="8" value="App backend&lt;br&gt;&lt;br&gt;build AST&lt;br&gt;process DBC and AST&lt;br&gt;Generate GXL&lt;br&gt;" style="rounded=1;whiteSpace=wrap;html=1;" vertex="1" parent="1">
                    <mxGeometry x="430" y="90" width="100" height="140" as="geometry"/>
                </mxCell>
                <mxCell id="11" value="" style="curved=1;endArrow=classic;html=1;entryX=0;entryY=0.75;entryDx=0;entryDy=0;" edge="1" parent="1" target="7">
                    <mxGeometry width="50" height="50" relative="1" as="geometry">
                        <mxPoint x="170" y="250" as="sourcePoint"/>
                        <mxPoint x="220" y="200" as="targetPoint"/>
                        <Array as="points">
                            <mxPoint x="220" y="250"/>
                            <mxPoint x="170" y="200"/>
                        </Array>
                    </mxGeometry>
                </mxCell>
                <mxCell id="12" value="" style="curved=1;endArrow=classic;html=1;exitX=1.025;exitY=0.663;exitDx=0;exitDy=0;exitPerimeter=0;entryX=0;entryY=0.5;entryDx=0;entryDy=0;" edge="1" parent="1" source="4" target="7">
                    <mxGeometry width="50" height="50" relative="1" as="geometry">
                        <mxPoint x="170" y="120" as="sourcePoint"/>
                        <mxPoint x="220" y="70" as="targetPoint"/>
                        <Array as="points">
                            <mxPoint x="220" y="120"/>
                            <mxPoint x="160" y="160"/>
                        </Array>
                    </mxGeometry>
                </mxCell>
                <mxCell id="13" value="" style="shape=flexArrow;endArrow=classic;startArrow=classic;html=1;entryX=0;entryY=0.5;entryDx=0;entryDy=0;" edge="1" parent="1" source="7" target="8">
                    <mxGeometry width="100" height="100" relative="1" as="geometry">
                        <mxPoint x="330" y="330" as="sourcePoint"/>
                        <mxPoint x="430" y="230" as="targetPoint"/>
                    </mxGeometry>
                </mxCell>
                <mxCell id="14" value="" style="endArrow=none;dashed=1;html=1;" edge="1" parent="1">
                    <mxGeometry width="50" height="50" relative="1" as="geometry">
                        <mxPoint x="40" y="320" as="sourcePoint"/>
                        <mxPoint x="800" y="320" as="targetPoint"/>
                    </mxGeometry>
                </mxCell>
                <mxCell id="15" value="m_file1_c_global" style="rounded=1;whiteSpace=wrap;html=1;" vertex="1" parent="1">
                    <mxGeometry x="470" y="405" width="120" height="30" as="geometry"/>
                </mxCell>
                <mxCell id="17" value="&lt;h1&gt;Module naming&lt;/h1&gt;&lt;p&gt;&amp;nbsp;modules mean scopes here.&lt;/p&gt;&lt;p&gt;We have global scopes and function level scopes for declaring and accessing variables (signals in code).&lt;/p&gt;&lt;p&gt;- m_filename_functionname&lt;/p&gt;&lt;p&gt;- m_filename_global&amp;nbsp;&lt;/p&gt;" style="text;html=1;strokeColor=none;fillColor=none;spacing=5;spacingTop=-20;whiteSpace=wrap;overflow=hidden;rounded=0;" vertex="1" parent="1">
                    <mxGeometry x="60" y="330" width="305" height="180" as="geometry"/>
                </mxCell>
                <mxCell id="18" value="Example" style="text;html=1;strokeColor=none;fillColor=none;align=center;verticalAlign=middle;whiteSpace=wrap;rounded=0;" vertex="1" parent="1">
                    <mxGeometry x="380" y="330" width="60" height="30" as="geometry"/>
                </mxCell>
                <mxCell id="19" value="" style="shape=step;perimeter=stepPerimeter;whiteSpace=wrap;html=1;fixedSize=1;rotation=90;" vertex="1" parent="1">
                    <mxGeometry x="490" y="340" width="60" height="30" as="geometry"/>
                </mxCell>
                <mxCell id="20" value="Signal_1" style="text;html=1;strokeColor=none;fillColor=none;align=center;verticalAlign=middle;whiteSpace=wrap;rounded=0;" vertex="1" parent="1">
                    <mxGeometry x="530" y="330" width="60" height="30" as="geometry"/>
                </mxCell>
                <mxCell id="21" value="Signal is declared and initialized here" style="text;html=1;strokeColor=none;fillColor=none;align=center;verticalAlign=middle;whiteSpace=wrap;rounded=0;" vertex="1" parent="1">
                    <mxGeometry x="640" y="405" width="180" height="30" as="geometry"/>
                </mxCell>
                <mxCell id="22" value="m_file1_c_fnc1" style="rounded=1;whiteSpace=wrap;html=1;" vertex="1" parent="1">
                    <mxGeometry x="370" y="480" width="120" height="30" as="geometry"/>
                </mxCell>
                <mxCell id="23" value="m_file2_c_fnc3" style="rounded=1;whiteSpace=wrap;html=1;" vertex="1" parent="1">
                    <mxGeometry x="300" y="540" width="120" height="30" as="geometry"/>
                </mxCell>
                <mxCell id="24" value="WRITE&lt;br&gt;Signal is written here" style="text;html=1;strokeColor=none;fillColor=none;align=center;verticalAlign=middle;whiteSpace=wrap;rounded=0;" vertex="1" parent="1">
                    <mxGeometry x="430" y="500" width="165" height="30" as="geometry"/>
                </mxCell>
                <mxCell id="25" value="WRITE&lt;br&gt;Signal is passed as reference to a subfunction from another module" style="text;html=1;strokeColor=none;fillColor=none;align=center;verticalAlign=middle;whiteSpace=wrap;rounded=0;" vertex="1" parent="1">
                    <mxGeometry x="370" y="560" width="160" height="50" as="geometry"/>
                </mxCell>
                <mxCell id="27" value="m_file1_c_fnc1" style="rounded=1;whiteSpace=wrap;html=1;" vertex="1" parent="1">
                    <mxGeometry x="635" y="540" width="120" height="30" as="geometry"/>
                </mxCell>
                <mxCell id="28" value="READ&lt;br&gt;Signal value is read into another variable in this module" style="text;html=1;strokeColor=none;fillColor=none;align=center;verticalAlign=middle;whiteSpace=wrap;rounded=0;" vertex="1" parent="1">
                    <mxGeometry x="700" y="560" width="160" height="50" as="geometry"/>
                </mxCell>
                <mxCell id="30" value="" style="endArrow=classic;html=1;exitX=0.25;exitY=1;exitDx=0;exitDy=0;entryX=0.5;entryY=0;entryDx=0;entryDy=0;" edge="1" parent="1" source="22" target="23">
                    <mxGeometry width="50" height="50" relative="1" as="geometry">
                        <mxPoint x="600" y="510" as="sourcePoint"/>
                        <mxPoint x="650" y="460" as="targetPoint"/>
                    </mxGeometry>
                </mxCell>
                <mxCell id="31" value="" style="endArrow=classic;html=1;exitX=0.5;exitY=1;exitDx=0;exitDy=0;entryX=0.5;entryY=0;entryDx=0;entryDy=0;" edge="1" parent="1" source="15" target="22">
                    <mxGeometry width="50" height="50" relative="1" as="geometry">
                        <mxPoint x="590" y="500" as="sourcePoint"/>
                        <mxPoint x="640" y="450" as="targetPoint"/>
                    </mxGeometry>
                </mxCell>
                <mxCell id="32" value="" style="endArrow=classic;html=1;exitX=0.5;exitY=1;exitDx=0;exitDy=0;entryX=0.5;entryY=0;entryDx=0;entryDy=0;" edge="1" parent="1" source="15" target="27">
                    <mxGeometry width="50" height="50" relative="1" as="geometry">
                        <mxPoint x="600" y="500" as="sourcePoint"/>
                        <mxPoint x="650" y="450" as="targetPoint"/>
                    </mxGeometry>
                </mxCell>
                <mxCell id="33" value="" style="endArrow=none;dashed=1;html=1;" edge="1" parent="1">
                    <mxGeometry width="50" height="50" relative="1" as="geometry">
                        <mxPoint x="30" y="700" as="sourcePoint"/>
                        <mxPoint x="790" y="700" as="targetPoint"/>
                    </mxGeometry>
                </mxCell>
                <mxCell id="34" value="&lt;h1&gt;Filtering&lt;/h1&gt;&lt;p&gt;We use filter sequences to pass targeted data through a data-reducing pipe.&lt;/p&gt;&lt;p&gt;Note: signal to code name pattern matching may benfit from using a simple ML model (ex. RandomForests, to keep consistent with the graph analysis &quot;theme&quot;)&lt;/p&gt;" style="text;html=1;strokeColor=none;fillColor=none;spacing=5;spacingTop=-20;whiteSpace=wrap;overflow=hidden;rounded=0;" vertex="1" parent="1">
                    <mxGeometry x="40" y="720" width="720" height="110" as="geometry"/>
                </mxCell>
                <mxCell id="37" value="DBC file signal lists" style="shape=internalStorage;whiteSpace=wrap;html=1;backgroundOutline=1;dx=10;dy=10;" vertex="1" parent="1">
                    <mxGeometry x="240" y="830" width="80" height="50" as="geometry"/>
                </mxCell>
                <mxCell id="38" value="AST -&amp;nbsp; &lt;br&gt;code artifacts" style="ellipse;shape=cloud;whiteSpace=wrap;html=1;" vertex="1" parent="1">
                    <mxGeometry x="50" y="900" width="120" height="80" as="geometry"/>
                </mxCell>
                <mxCell id="39" value="filter by signal name" style="shape=process;whiteSpace=wrap;html=1;backgroundOutline=1;" vertex="1" parent="1">
                    <mxGeometry x="210" y="915" width="150" height="50" as="geometry"/>
                </mxCell>
                <mxCell id="41" value="filter by access type&lt;br&gt;RW" style="shape=process;whiteSpace=wrap;html=1;backgroundOutline=1;" vertex="1" parent="1">
                    <mxGeometry x="380" y="915" width="150" height="50" as="geometry"/>
                </mxCell>
                <mxCell id="43" value="Reduce AST to only data refrencing our target nodes and with specific operations (WRITE)" style="text;html=1;strokeColor=none;fillColor=none;align=center;verticalAlign=middle;whiteSpace=wrap;rounded=0;" vertex="1" parent="1">
                    <mxGeometry x="460" y="850" width="180" height="30" as="geometry"/>
                </mxCell>
                <mxCell id="44" value="" style="endArrow=none;dashed=1;html=1;" edge="1" parent="1">
                    <mxGeometry width="50" height="50" relative="1" as="geometry">
                        <mxPoint x="45" y="1010" as="sourcePoint"/>
                        <mxPoint x="805" y="1010" as="targetPoint"/>
                    </mxGeometry>
                </mxCell>
                <mxCell id="45" value="&lt;h1&gt;UI features&lt;/h1&gt;&lt;div&gt;- upload a dbc -&amp;gt; check format&lt;/div&gt;&lt;div&gt;- upload source code -&amp;gt; check format, zipped, buildable, folder structure.&lt;/div&gt;&lt;div&gt;- GML viewer&lt;/div&gt;&lt;div&gt;- GML report download&lt;/div&gt;&lt;div&gt;&lt;br&gt;&lt;/div&gt;" style="text;html=1;strokeColor=none;fillColor=none;spacing=5;spacingTop=-20;whiteSpace=wrap;overflow=hidden;rounded=0;" vertex="1" parent="1">
                    <mxGeometry x="35" y="1120" width="720" height="130" as="geometry"/>
                </mxCell>
                <mxCell id="46" value="«Component»&lt;br&gt;&lt;b&gt;UserInputs&lt;/b&gt;" style="html=1;dropTarget=0;" vertex="1" parent="1">
                    <mxGeometry x="170" y="1270" width="180" height="90" as="geometry"/>
                </mxCell>
                <mxCell id="47" value="" style="shape=module;jettyWidth=8;jettyHeight=4;" vertex="1" parent="46">
                    <mxGeometry x="1" width="20" height="20" relative="1" as="geometry">
                        <mxPoint x="-27" y="7" as="offset"/>
                    </mxGeometry>
                </mxCell>
                <mxCell id="48" value="«Component»&lt;br&gt;&lt;b&gt;GML display&lt;/b&gt;" style="html=1;dropTarget=0;" vertex="1" parent="1">
                    <mxGeometry x="365" y="1430" width="180" height="90" as="geometry"/>
                </mxCell>
                <mxCell id="49" value="" style="shape=module;jettyWidth=8;jettyHeight=4;" vertex="1" parent="48">
                    <mxGeometry x="1" width="20" height="20" relative="1" as="geometry">
                        <mxPoint x="-27" y="7" as="offset"/>
                    </mxGeometry>
                </mxCell>
                <mxCell id="50" value="«Component»&lt;br&gt;&lt;b&gt;Download&lt;/b&gt;" style="html=1;dropTarget=0;" vertex="1" parent="1">
                    <mxGeometry x="60" y="1430" width="180" height="90" as="geometry"/>
                </mxCell>
                <mxCell id="51" value="" style="shape=module;jettyWidth=8;jettyHeight=4;" vertex="1" parent="50">
                    <mxGeometry x="1" width="20" height="20" relative="1" as="geometry">
                        <mxPoint x="-27" y="7" as="offset"/>
                    </mxGeometry>
                </mxCell>
                <mxCell id="52" value="«Component»&lt;br&gt;&lt;b&gt;DataStore&lt;/b&gt;" style="html=1;dropTarget=0;" vertex="1" parent="1">
                    <mxGeometry x="455" y="1270" width="180" height="90" as="geometry"/>
                </mxCell>
                <mxCell id="53" value="" style="shape=module;jettyWidth=8;jettyHeight=4;" vertex="1" parent="52">
                    <mxGeometry x="1" width="20" height="20" relative="1" as="geometry">
                        <mxPoint x="-27" y="7" as="offset"/>
                    </mxGeometry>
                </mxCell>
                <mxCell id="54" value="Collect inputs&amp;nbsp;&lt;br&gt;Inform on bad inputs" style="text;html=1;strokeColor=none;fillColor=none;align=left;verticalAlign=middle;whiteSpace=wrap;rounded=0;" vertex="1" parent="1">
                    <mxGeometry x="200" y="1360" width="160" height="30" as="geometry"/>
                </mxCell>
                <mxCell id="55" value="Manage data flow with backend service" style="text;html=1;strokeColor=none;fillColor=none;align=left;verticalAlign=middle;whiteSpace=wrap;rounded=0;" vertex="1" parent="1">
                    <mxGeometry x="465" y="1360" width="160" height="30" as="geometry"/>
                </mxCell>
                <mxCell id="56" value="Manage download from backend" style="text;html=1;strokeColor=none;fillColor=none;align=left;verticalAlign=middle;whiteSpace=wrap;rounded=0;" vertex="1" parent="1">
                    <mxGeometry x="70" y="1520" width="160" height="30" as="geometry"/>
                </mxCell>
                <mxCell id="57" value="Display interactive GML graph" style="text;html=1;strokeColor=none;fillColor=none;align=left;verticalAlign=middle;whiteSpace=wrap;rounded=0;" vertex="1" parent="1">
                    <mxGeometry x="375" y="1520" width="160" height="30" as="geometry"/>
                </mxCell>
                <mxCell id="59" value="ML&amp;nbsp;&lt;br&gt;model" style="shape=hexagon;perimeter=hexagonPerimeter2;whiteSpace=wrap;html=1;fixedSize=1;" vertex="1" parent="1">
                    <mxGeometry x="330" y="860" width="70" height="40" as="geometry"/>
                </mxCell>
                <mxCell id="60" value="Experimenting with Angular features" style="text;html=1;strokeColor=#BD7000;fillColor=#f0a30a;align=center;verticalAlign=middle;whiteSpace=wrap;rounded=0;fontColor=#000000;fontStyle=1" vertex="1" parent="1">
                    <mxGeometry x="660" y="1210" width="140" height="30" as="geometry"/>
                </mxCell>
                <mxCell id="61" value="Text" style="text;html=1;strokeColor=none;fillColor=none;align=center;verticalAlign=middle;whiteSpace=wrap;rounded=0;" vertex="1" parent="1">
                    <mxGeometry x="400" y="1370" width="60" height="30" as="geometry"/>
                </mxCell>
                <mxCell id="62" value="Text" style="text;html=1;strokeColor=none;fillColor=none;align=center;verticalAlign=middle;whiteSpace=wrap;rounded=0;" vertex="1" parent="1">
                    <mxGeometry x="400" y="1370" width="60" height="30" as="geometry"/>
                </mxCell>
                <mxCell id="63" value="Use RxDb for Frontend data storing&lt;br&gt;Angular Signals (still in dev)&lt;br&gt;NxRx for state management" style="text;html=1;strokeColor=none;fillColor=none;align=center;verticalAlign=middle;whiteSpace=wrap;rounded=0;fontColor=#FFB366;" vertex="1" parent="1">
                    <mxGeometry x="650" y="1280" width="180" height="80" as="geometry"/>
                </mxCell>
                <mxCell id="64" value="d3 lib for interactive gravitational graph model" style="text;html=1;strokeColor=none;fillColor=none;align=center;verticalAlign=middle;whiteSpace=wrap;rounded=0;fontColor=#FFB366;" vertex="1" parent="1">
                    <mxGeometry x="650" y="1460" width="180" height="30" as="geometry"/>
                </mxCell>
            </root>
        </mxGraphModel>
    </diagram>
</mxfile>